<svg aria-hidden="true" style="position:absolute;width:0;height:0;overflow:hidden" xmlns="http://www.w3.org/2000/svg">
  <defs>
    <symbol id="icon-x" viewBox="0 0 32 32">
      <path d="M25.078.16h4.711L19.498 13.173 31.605 30.88h-9.48L14.7 20.141 6.204 30.88H1.491l11.008-13.918L.885.16h9.72l6.711 9.816L25.078.16zm-1.653 27.601h2.61L9.186 3.116H6.385l17.04 24.645z"/>
    </symbol>
    <symbol id="icon-LinkedIn" viewBox="0 0 32 32">
      <path d="M26.2 4H5.8C4.84 4 4 4.724 4 5.688v20.623c0 .965.84 1.688 1.8 1.688h20.4c.96 0 1.8-.724 1.8-1.688V5.688C28 4.844 27.16 4 26.2 4zM11.08 24.623h-3.6V13.166h3.6v11.457zm-1.8-13.146c-1.2 0-2.04-.965-2.04-2.05s.96-2.05 2.04-2.05 2.04.965 2.04 2.05c.12 1.206-.84 2.05-2.04 2.05zM24.4 24.623h-3.6v-5.548c0-1.327 0-3.015-1.8-3.015s-2.16 1.447-2.16 3.015v5.668h-3.6V13.286h3.36v1.568c.48-.965 1.68-1.809 3.36-1.809 3.6 0 4.32 2.412 4.32 5.427v6.151h.12z"/>
    </symbol>
    <symbol id="icon-Dribbble" viewBox="0 0 32 32">
      <path d="M16 29.333C8.648 29.333 2.667 23.352 2.667 16S8.648 2.667 16 2.667 29.333 8.648 29.333 16 23.352 29.333 16 29.333zm11.245-11.508c-.39-.123-3.525-1.058-7.094-.487 1.49 4.093 2.096 7.427 2.212 8.12a11.41 11.41 0 0 0 4.882-7.633zm-6.796 8.676c-.169-.999-.831-4.481-2.43-8.636l-.075.025c-6.424 2.238-8.73 6.693-8.934 7.112a11.37 11.37 0 0 0 11.439 1.499zm-12.91-2.869c.258-.442 3.384-5.617 9.257-7.515.148-.048.298-.093.449-.135a38.269 38.269 0 0 0-.923-1.933C10.635 15.751 5.116 15.68 4.617 15.67c-.003.116-.006.231-.006.348a11.345 11.345 0 0 0 2.928 7.615zm-2.687-9.947c.509.007 5.202.027 10.529-1.388a72.912 72.912 0 0 0-4.222-6.587 11.43 11.43 0 0 0-6.306 7.974zm8.479-8.74a60.766 60.766 0 0 1 4.25 6.667c4.05-1.518 5.764-3.822 5.969-4.114-1.371-1.218-3.017-2.086-4.796-2.53s-3.64-.452-5.423-.023zm11.485 3.87c-.24.325-2.148 2.771-6.359 4.49a35.574 35.574 0 0 1 1.001 2.238c3.789-.477 7.555.287 7.93.367a11.33 11.33 0 0 0-2.572-7.094z"/>
    </symbol>
    <symbol id="icon-Group" viewBox="0 0 128 32">
      <path d="M32 16c0 8.837-7.163 16-16 16S0 24.837 0 16 7.163 0 16 0s16 7.163 16 16zM80 16c0 8.837-7.163 16-16 16s-16-7.163-16-16S55.163 0 64 0s16 7.163 16 16zM128 16c0 8.837-7.163 16-16 16s-16-7.163-16-16 7.163-16 16-16 16 7.163 16 16z"/>
    </symbol>
    <symbol id="icon-Fresh" viewBox="0 0 91 32">
      <path d="M55.987 5.333h-9.962c-5.978 0-10.825 4.163-10.825 10.141v7.028c4.364-8.921 14.971-15.189 20.787-17.169z"/>
      <path d="M36.267 27.733h8.828c5.979 0 10.825-4.847 10.825-10.825V5.851c-9.217 5.117-15.524 13.084-19.654 21.882z"/>
    </symbol>
    <symbol id="icon-Frame" viewBox="0 0 91 32">
      <path d="M59.494 1.067H31.29a.356.356 0 0 0-.123.69l25.511 8.352c.029.01.061.009.089-.003s.052-.032.067-.059l3.807-7.061a1.29 1.29 0 0 0-.028-1.285 1.307 1.307 0 0 0-1.117-.635zM30.94 30.59a.347.347 0 0 0 .261.334.348.348 0 0 0 .388-.171l4.907-9.09a1.302 1.302 0 0 1 1.145-.683H50.16a1.296 1.296 0 0 0 1.145-.684l3.741-6.936a.103.103 0 0 0-.041-.139.103.103 0 0 0-.051-.014H32.241a1.301 1.301 0 0 0-1.301 1.301v16.081z"/>
    </symbol>
    <symbol id="icon-epiq" viewBox="0 0 91 32">
      <path d="M28.28 15.038c-1.477 4.495-5.09 7.027-9.975 7.027-6.076 0-10.838-4.821-10.838-10.992C7.467 4.985 12.229-.001 18.1-.001c5.46 0 10.715 4.495 10.674 11.973H10.998c.451 4.373 3.818 6.947 7.307 6.947 2.997 0 5.131-1.43 6.281-3.882h3.694zm-3.366-6.17c-.862-3.433-3.736-5.721-6.815-5.721-2.914 0-5.993 2.125-6.896 5.721h13.711zm16.133 13.198c-3.038 0-5.666-1.634-7.184-3.677v12.545h-3.49V.532h3.366v3.35C35.217 1.758 37.926 0 41.046 0c6.075 0 10.55 4.945 10.55 10.993 0 6.13-4.475 11.073-10.55 11.073zm0-18.878c-3.9 0-7.184 3.514-7.184 7.805 0 4.331 3.284 7.886 7.184 7.886 3.941 0 7.061-3.555 7.061-7.886 0-4.29-3.12-7.805-7.061-7.805zM53.116.532h3.49v21.044h-3.49V.532zm5.048 10.555c0-6.141 5.008-11.08 11.348-11.08s11.349 4.939 11.349 11.08-5.054 10.991-11.349 10.991-11.348-4.85-11.348-10.991zM70.47 3.359c-5.776-.503-8.989 3.875-8.989 8.975 0 5.099 4.223 9.234 9.429 9.234a9.533 9.533 0 0 0 5.451-1.699l-1.307-3.312c1.35-1.4 2.131-3.336 2.131-5.474 0-4.227-2.965-7.372-6.715-7.723z"/>
      <path d="m66.361 13.202 10.295 8.337h5.478l-10.029-8.337z"/>
    </symbol>
    <symbol id="icon-cbre" viewBox="0 0 130 32">
      <path d="M58.884 15.478c4.094-1.351 4.836-4.767 4.827-7.55C63.703 3.679 60.685.003 51.752.003L35.078 0v31.934h16.631c8.987 0 12.293-4.586 12.293-9.18 0-5.563-5.118-7.276-5.118-7.276zM42.99 6.947l11.267.008c1.267.223 2.19 1.294 2.19 2.551 0 1.286-.989 2.496-2.295 2.673l-11.154.017-.008-5.249zm10.686 17.545H42.99v-5.347l10.973.003c1.362.156 2.394 1.282 2.394 2.619 0 1.457-1.221 2.702-2.681 2.725zM101.339.004h28.177l-.016 6.97h-20.332l.019 5.147h18.33v7.006h-18.33v5.57h20.335L129.518 32h-28.18V.004zM84.95.046H67.911V31.99h7.825V19.066l8.617-.01c2.468.038 4.387 2.047 4.387 4.525v8.381l7.659-.003-.015-10.31c0-4.776-4.641-6.187-4.641-6.187s4.745-1.412 4.745-7.058c0-6.908-5.973-8.359-11.537-8.359zm4.271 9.911c-.141 1.05-1.197 2.189-2.516 2.189l-10.997.004V7.035H86.71c1.313 0 2.343.962 2.51 2.225v.697zM30.003 24.271c-.113.003-10.696.206-14.349-.148-5.885-.573-7.969-4.906-7.969-8.442 0-4.409 3.024-7.654 7.709-8.264 2.229-.29 14.416-.153 14.545-.152l.256.003.026-7.264-.259.001L16.168.03c-1.536.093-4.082.247-6.689 1.307a16.341 16.341 0 0 0-6.312 5.072A15.808 15.808 0 0 0-.001 15.93c0 1.086.086 2.165.263 3.199.993 4.843 4.187 8.851 8.767 11.007 1.547.676 3.932 1.488 8.742 1.756l2.591.054 9.87.01.027-7.688-.257.003z"/>
    </symbol>
    <symbol id="icon-foto" viewBox="0 0 32 32">
      <path d="M29.828 8.236H26.9l-.673-3.034a2.794 2.794 0 0 0-2.746-2.201H13.317c-1.33 0-2.459.905-2.746 2.201l-.673 3.034h-.695V6.941c0-.73-.595-1.323-1.325-1.323H3.592c-.731 0-1.325.594-1.325 1.323v1.295h-.094a2.173 2.173 0 0 0-2.172 2.169v14.688c0 1.196.975 2.169 2.172 2.169h10.075c1.773 1.147 3.886 1.814 6.152 1.814s4.378-.667 6.151-1.814h5.278a2.173 2.173 0 0 0 2.172-2.169V10.405a2.173 2.173 0 0 0-2.172-2.169zM11.79 5.471c.16-.72.787-1.223 1.526-1.223H23.48c.739 0 1.366.503 1.526 1.223l.613 2.765h-1.07c-1.773-1.147-3.886-1.814-6.151-1.814s-4.378.667-6.152 1.814h-1.07l.613-2.765zm-8.274 1.47c0-.042.034-.075.075-.075h4.286c.042 0 .075.034.075.075v1.295H3.515V6.941zm1.503 19.072v-6.777a.624.624 0 0 0-1.25 0v6.777H2.172a.922.922 0 0 1-.922-.921V10.404c0-.508.414-.921.922-.921h8.477c-2.212 2.068-3.597 5.008-3.597 8.265s1.385 6.197 3.597 8.265H5.018zm19.15 0a10.083 10.083 0 0 1-11.542 0c-2.613-1.823-4.325-4.848-4.325-8.265s1.712-6.441 4.325-8.265a10.083 10.083 0 0 1 11.542 0c2.613 1.823 4.325 4.848 4.325 8.265s-1.712 6.441-4.325 8.265zm6.581-.921a.923.923 0 0 1-.922.921h-3.68c2.212-2.068 3.597-5.008 3.597-8.265s-1.385-6.197-3.597-8.265h3.68c.509 0 .922.413.922.921v14.688z"/>
      <path d="M18.37 10.111c-4.248 0-7.704 3.456-7.704 7.704s3.456 7.704 7.704 7.704c.619 0 1.235-.074 1.831-.219a.586.586 0 1 0-.278-1.14 6.537 6.537 0 0 1-8.083-6.344 6.537 6.537 0 0 1 6.53-6.53 6.537 6.537 0 0 1 6.53 6.53 6.488 6.488 0 0 1-1.121 3.659.586.586 0 1 0 .972.659 7.662 7.662 0 0 0 1.323-4.318c0-4.248-3.456-7.704-7.704-7.704zM4.741 11.296c-1.307 0-2.37 1.063-2.37 2.37s1.063 2.37 2.37 2.37c1.307 0 2.37-1.063 2.37-2.37s-1.063-2.37-2.37-2.37zm0 3.468a1.098 1.098 0 0 1 0-2.194 1.098 1.098 0 0 1 0 2.194z"/>
      <path d="M23.692 23.625a.644.644 0 0 0-.089-.213.532.532 0 0 0-.163-.164.595.595 0 0 0-.658 0c-.032.022-.062.047-.09.074s-.052.057-.073.09a.625.625 0 0 0-.089.213.571.571 0 0 0 .089.445.532.532 0 0 0 .163.163.595.595 0 0 0 .748-.073.597.597 0 0 0 .162-.535z"/>
    </symbol>
    <symbol id="icon-play" viewBox="0 0 32 32">
      <path stroke-width="2" d="M31 16c0 8.284-6.716 15-15 15S1 24.284 1 16C1 7.716 7.716 1 16 1s15 6.716 15 15z"/>
      <path d="m21 16-7.5 4.33v-8.66L21 16z"/>
    </symbol>
    <symbol id="icon-Vector-2" viewBox="0 0 32 32">
      <path d="M23.672 1.971a3.133 3.133 0 0 0-3.45-.664L8.624 6.278a5.198 5.198 0 0 0-2.894 3.15 574.058 574.058 0 0 0-3.669 11.503 164.092 164.092 0 0 0-1.447 4.971 38.695 38.695 0 0 0-.436 1.756c-.097.448-.178.89-.178 1.208v.433L2.701 32h.433c.318 0 .76-.08 1.208-.178a40.085 40.085 0 0 0 1.756-.436c1.359-.365 3.089-.873 4.971-1.447 3.765-1.148 8.17-2.57 11.503-3.669a5.198 5.198 0 0 0 3.15-2.894l4.971-11.598a3.133 3.133 0 0 0-.665-3.45l-6.356-6.356zm-2.627 1.256a1.045 1.045 0 0 1 1.15.221l6.355 6.356c.302.302.39.757.222 1.15l-4.971 11.598a3.11 3.11 0 0 1-1.884 1.733 572.533 572.533 0 0 1-11.458 3.655 161.05 161.05 0 0 1-4.903 1.427c-.664.178-1.224.318-1.658.413-.092.02-.177.038-.254.053L14.317 19.16a3.136 3.136 0 0 0 3.567-5.044 3.132 3.132 0 0 0-5.043 3.567L2.168 28.356c.015-.078.033-.163.053-.254.094-.434.234-.994.413-1.658.356-1.326.856-3.03 1.427-4.903a572.533 572.533 0 0 1 3.655-11.458 3.107 3.107 0 0 1 1.733-1.884l11.598-4.971z"/>
    </symbol>
    <symbol id="icon-Vector-1" viewBox="0 0 32 32">
      <path d="M30.222 23.111v7.111H17.778v-7.111h12.444zm0-21.333V16H17.778V1.778h12.444zM10.667 16H1.778v14.222h8.889V16zm0-14.222v7.111H1.778V1.778h8.889zM17.778 0C16.796 0 16 .796 16 1.778V16c0 .982.796 1.778 1.778 1.778h12.444c.982 0 1.778-.796 1.778-1.778V1.778C32 .796 31.204 0 30.222 0H17.778zm0 21.333c-.982 0-1.778.796-1.778 1.778v7.111c0 .982.796 1.778 1.778 1.778h12.444c.982 0 1.778-.796 1.778-1.778v-7.111c0-.982-.796-1.778-1.778-1.778H17.778zM0 16c0-.982.796-1.778 1.778-1.778h8.889c.982 0 1.778.796 1.778 1.778v14.222c0 .982-.796 1.778-1.778 1.778H1.778A1.778 1.778 0 0 1 0 30.222V16zM1.778 0C.796 0 0 .796 0 1.778v7.111c0 .982.796 1.778 1.778 1.778h8.889c.982 0 1.778-.796 1.778-1.778V1.778C12.445.796 11.649 0 10.667 0H1.778z"/>
    </symbol>
    <symbol id="icon-logo" viewBox="0 0 105 32">
      <path d="M6.48 31.6H0V0h7.24c1.493 0 2.707.08 3.64.24.96.133 1.707.427 2.24.88s.893 1.107 1.08 1.96c.213.827.32 1.947.32 3.36v3.28c0 .827-.093 1.507-.28 2.04s-.427.96-.72 1.28c-.267.32-.56.56-.88.72-.32.133-.613.227-.88.28v.16c.4.107.76.267 1.08.48.347.187.64.48.88.88s.427.933.56 1.6c.16.64.24 1.467.24 2.48V31.6H8v-14c0-.347-.04-.573-.12-.68-.08-.133-.293-.2-.64-.2h-.76V31.6zm0-19.96h.76c.347 0 .56-.053.64-.16.08-.133.12-.373.12-.72V6.44c0-.347-.04-.573-.12-.68-.08-.133-.293-.2-.64-.2h-.76v6.08zm23.222 15.28c0 1.12-.093 2.013-.28 2.68-.16.667-.48 1.187-.96 1.56-.453.347-1.093.573-1.92.68-.8.107-1.853.16-3.16.16-1.28 0-2.333-.053-3.16-.16s-1.467-.333-1.92-.68c-.453-.373-.773-.893-.96-1.56-.16-.667-.24-1.56-.24-2.68v-14.6c0-1.12.08-2.013.24-2.68.187-.667.507-1.173.96-1.52.453-.373 1.093-.613 1.92-.72s1.88-.16 3.16-.16c1.307 0 2.36.053 3.16.16.827.107 1.467.347 1.92.72.48.347.8.853.96 1.52.187.667.28 1.56.28 2.68v14.6zm-7.04-1.12c0 .347.04.587.12.72.08.107.28.16.6.16.347 0 .56-.053.64-.16.08-.133.12-.373.12-.72V13.44c0-.347-.04-.573-.12-.68-.08-.133-.293-.2-.64-.2-.32 0-.52.067-.6.2-.08.107-.12.333-.12.68V25.8zM38.298 0v8.72c.347-.48.773-.813 1.28-1 .533-.187 1.187-.28 1.96-.28s1.4.093 1.88.28c.48.16.84.427 1.08.8.267.373.44.88.52 1.52.107.613.16 1.373.16 2.28v14.6c0 .933-.053 1.72-.16 2.36-.08.613-.253 1.107-.52 1.48s-.653.64-1.16.8c-.507.16-1.16.24-1.96.24-.907 0-1.64-.093-2.2-.28-.56-.213-.987-.547-1.28-1v1.08h-5.32V0h5.72zm1.32 13.44c0-.32-.04-.547-.12-.68-.053-.133-.227-.2-.52-.2-.267 0-.467.053-.6.16-.107.08-.187.213-.24.4v13a.989.989 0 0 0 .24.44c.133.08.333.12.6.12.293 0 .467-.067.52-.2.08-.133.12-.36.12-.68V13.44zm14.189-9.28h-5.68V0h5.68v4.16zm0 27.44h-5.68V7.64h5.68V31.6zm16.264 0h-5.76V13.44c0-.32-.04-.547-.12-.68-.054-.133-.227-.2-.52-.2-.267 0-.467.053-.6.16-.107.08-.2.213-.28.4V31.6h-5.72V7.64h5.32v1.08c.293-.453.72-.773 1.28-.96.56-.213 1.293-.32 2.2-.32.8 0 1.466.08 2 .24.56.16 1 .427 1.32.8s.546.88.68 1.52c.133.613.2 1.387.2 2.32V31.6zm8.854 0h-5.8v-5.64h5.8v5.64zM104.573 0l-3.28 31.6h-8.16l-1.08-22.92h-.16l-1.32 22.92h-8.28L79.853 0h6.52l.68 22.16h.16L88.173 0h8l.68 22.16h.16l1-22.16h6.56z"/>
    </symbol>
    <symbol id="icon-burger" viewBox="0 0 32 32">
      <path d="M0 0h32v32h-32v-32z"></path>
      <path d="M4 8h24v4h-24v-4z"></path>
      <path d="M10.667 18.667h17.333v4h-17.333v-4z"></path>
    </symbol>
  </defs>
</svg>